<svg id="Layer_1" data-name="Layer 1" xmlns="http://www.w3.org/2000/svg" viewBox="0 0 597.22 166.67"><defs><style>.cls-1{fill:#3a4556;}.cls-2{fill:#4f5d72;}.cls-3{font-size:30px;font-family:HelveticaNeue, Helvetica Neue;}.cls-3,.cls-4{fill:#eee;}</style></defs><rect class="cls-1" x="104.53" y="46.55" width="346.19" height="73.57" rx="35.03"/><path class="cls-2" d="M415.69,49.05a32.56,32.56,0,0,1,32.53,32.53v3.51a32.56,32.56,0,0,1-32.53,32.53H139.56A32.56,32.56,0,0,1,107,85.09V81.58a32.56,32.56,0,0,1,32.53-32.53H415.69m0-5H139.56A37.64,37.64,0,0,0,102,81.58v3.51a37.64,37.64,0,0,0,37.53,37.53H415.69a37.64,37.64,0,0,0,37.53-37.53V81.58a37.64,37.64,0,0,0-37.53-37.53Z"/><text class="cls-3" transform="translate(253.66 93.82)">Dark Mode</text><g id="d4DqJt"><path class="cls-4" d="M175.09,59.71a19.36,19.36,0,0,0-10.25,13.74,18.8,18.8,0,0,0,1.61,12,19.39,19.39,0,0,0,14.49,10.7,19.77,19.77,0,0,0,9.25-.77,22.82,22.82,0,0,1-6.81,6.92,23.07,23.07,0,0,1-9.07,3.56,23.48,23.48,0,0,1-20.85-39.39,23.53,23.53,0,0,1,21.63-6.81Z"/></g><polygon class="cls-4" points="208.93 78.88 205.5 74.31 199.78 74.54 203.07 69.86 201.08 64.49 206.55 66.18 211.04 62.63 211.13 68.35 215.89 71.52 210.48 73.37 208.93 78.88"/></svg>
