<svg id="Layer_1" data-name="Layer 1" xmlns="http://www.w3.org/2000/svg" viewBox="0 0 381.18 105.88"><defs><style>.cls-1{fill:#007ea8;}.cls-2{fill:#00678a;}.cls-3{font-size:33px;font-family:HelveticaNeue-Medium, Helvetica Neue;font-weight:500;}.cls-3,.cls-4{fill:#eee;}</style></defs><rect class="cls-1" x="16.41" y="16.16" width="346.19" height="73.57" rx="35.03"/><path class="cls-2" d="M327.57,18.66A32.56,32.56,0,0,1,360.1,51.18V54.7a32.57,32.57,0,0,1-32.53,32.53H51.44A32.57,32.57,0,0,1,18.91,54.7V51.18A32.56,32.56,0,0,1,51.44,18.66H327.57m0-5H51.44A37.63,37.63,0,0,0,13.91,51.18V54.7A37.64,37.64,0,0,0,51.44,92.23H327.57A37.64,37.64,0,0,0,365.1,54.7V51.18a37.63,37.63,0,0,0-37.53-37.52Z"/><text class="cls-3" transform="translate(149.24 62.66)">Dark Mode</text><g id="d4DqJt"><path class="cls-4" d="M87,29.32A19.32,19.32,0,0,0,76.73,43.06a19.38,19.38,0,0,0,7.52,19.17,19.15,19.15,0,0,0,8.57,3.58,19.76,19.76,0,0,0,9.25-.77A22.78,22.78,0,0,1,95.27,72,23.49,23.49,0,0,1,65.35,36.13,23.45,23.45,0,0,1,87,29.32Z"/></g><polygon class="cls-4" points="115.1 48.73 111.66 44.15 105.94 44.38 109.24 39.7 107.25 34.34 112.72 36.02 117.2 32.47 117.29 38.19 122.06 41.36 116.64 43.21 115.1 48.73"/></svg>