<svg id="Layer_1" data-name="Layer 1" xmlns="http://www.w3.org/2000/svg" viewBox="0 0 381.18 105.88"><defs><style>.cls-1{fill:#495668;}.cls-2{fill:#697b91;}.cls-3{font-size:33px;font-family:HelveticaNeue-Medium, Helvetica Neue;font-weight:500;}.cls-3,.cls-4{fill:#eee;}</style></defs><rect class="cls-1" x="16.41" y="16.16" width="346.19" height="73.57" rx="35.03"/><path class="cls-2" d="M327.57,18.66A32.56,32.56,0,0,1,360.1,51.18V54.7a32.57,32.57,0,0,1-32.53,32.53H51.44A32.57,32.57,0,0,1,18.91,54.7V51.18A32.56,32.56,0,0,1,51.44,18.66H327.57m0-5H51.44A37.63,37.63,0,0,0,13.91,51.18V54.7A37.64,37.64,0,0,0,51.44,92.23H327.57A37.64,37.64,0,0,0,365.1,54.7V51.18a37.63,37.63,0,0,0-37.53-37.52Z"/><text class="cls-3" transform="translate(58.83 63.57)">Light Mode</text><circle class="cls-4" cx="298.88" cy="51.94" r="24.33"/><circle class="cls-4" cx="256.77" cy="39.1" r="7.59"/></svg>