<svg id="Layer_1" data-name="Layer 1" xmlns="http://www.w3.org/2000/svg" viewBox="0 0 603.57 167.34"><defs><style>.cls-1{fill:#495668;}.cls-2{fill:#697b91;}.cls-3{font-size:30px;font-family:HelveticaNeue, Helvetica Neue;}.cls-3,.cls-4{fill:#eee;}</style></defs><rect class="cls-1" x="128.69" y="45.88" width="346.19" height="73.57" rx="35.03"/><path class="cls-2" d="M439.85,48.38a32.56,32.56,0,0,1,32.53,32.53v3.52A32.56,32.56,0,0,1,439.85,117H163.72a32.56,32.56,0,0,1-32.53-32.52V80.91a32.56,32.56,0,0,1,32.53-32.53H439.85m0-5H163.72a37.64,37.64,0,0,0-37.53,37.53v3.52A37.63,37.63,0,0,0,163.72,122H439.85a37.63,37.63,0,0,0,37.53-37.52V80.91a37.64,37.64,0,0,0-37.53-37.53Z"/><text class="cls-3" transform="translate(169.09 92.36)">Light Mode</text><circle class="cls-4" cx="412.65" cy="82.67" r="24.33"/><circle class="cls-4" cx="371.46" cy="70.94" r="7.59"/></svg>